<svg width="24" height="24" viewBox="0 0 24 24" fill="none" xmlns="http://www.w3.org/2000/svg">
<path d="M6.6 13.9528L7.1721 14.773C7.44022 14.586 7.6 14.2797 7.6 13.9528H6.6ZM11.4 13.9528H10.4C10.4 14.2373 10.5211 14.5083 10.7331 14.698L11.4 13.9528ZM9 16.4C8.44772 16.4 8 16.8477 8 17.4C8 17.9523 8.44772 18.4 9 18.4V17.4V16.4ZM9.05625 18.4C9.60854 18.4 10.0563 17.9523 10.0563 17.4C10.0563 16.8477 9.60854 16.4 9.05625 16.4V17.4V18.4ZM13.2 17.4H12.2C12.2 19.1673 10.7673 20.6 9 20.6V21.6V22.6C11.8719 22.6 14.2 20.2719 14.2 17.4H13.2ZM9 21.6V20.6C7.23269 20.6 5.8 19.1673 5.8 17.4H4.8H3.8C3.8 20.2719 6.12812 22.6 9 22.6V21.6ZM4.8 17.4H5.8C5.8 16.3134 6.34064 15.353 7.1721 14.773L6.6 13.9528L6.02791 13.1327C4.68319 14.0706 3.8 15.6321 3.8 17.4H4.8ZM11.4 13.9528L10.7331 14.698C11.0779 15.0066 11.4596 15.4703 11.7503 15.9879C12.0462 16.515 12.2 17.0123 12.2 17.4H13.2H14.2C14.2 16.5438 13.8834 15.7021 13.4942 15.0088C13.0997 14.3061 12.5813 13.6681 12.0669 13.2077L11.4 13.9528ZM11.4 4.80002H10.4V13.9528H11.4H12.4V4.80002H11.4ZM6.6 13.9528H7.6V4.79846H6.6H5.6V13.9528H6.6ZM9 2.40002V3.40002C9.7732 3.40002 10.4 4.02683 10.4 4.80002H11.4H12.4C12.4 2.92226 10.8778 1.40002 9 1.40002V2.40002ZM9 2.40002V1.40002C7.12309 1.40002 5.6 2.91984 5.6 4.79846H6.6H7.6C7.6 4.02611 8.22595 3.40002 9 3.40002V2.40002ZM9 17.4V18.4H9.05625V17.4V16.4H9V17.4ZM19.2 7.20002H18.2C18.2 7.97322 17.5732 8.60002 16.8 8.60002V9.60002V10.6C18.6778 10.6 20.2 9.07779 20.2 7.20002H19.2ZM16.8 9.60002V8.60002C16.0268 8.60002 15.4 7.97322 15.4 7.20002H14.4H13.4C13.4 9.07779 14.9222 10.6 16.8 10.6V9.60002ZM14.4 7.20002H15.4C15.4 6.42683 16.0268 5.80002 16.8 5.80002V4.80002V3.80002C14.9222 3.80002 13.4 5.32226 13.4 7.20002H14.4ZM16.8 4.80002V5.80002C17.5732 5.80002 18.2 6.42683 18.2 7.20002H19.2H20.2C20.2 5.32226 18.6778 3.80002 16.8 3.80002V4.80002Z" fill="white"/>
</svg>
