<svg width="24" height="24" viewBox="0 0 24 24" fill="none" xmlns="http://www.w3.org/2000/svg">
    <path d="M8.4 17.4H8.45625M14.55 11.25L16.8 9.00002M16.8 9.00002L19.05 11.25M16.8 9.00002V5.40002M16.8 9.00002L13.8 7.50002M16.8 9.00002L19.8 7.50002M12.6 17.4C12.6 19.7196 10.7196 21.6 8.4 21.6C6.0804 21.6 4.2 19.7196 4.2 17.4C4.2 15.9728 4.91191 14.7118 6 13.9528V4.79846C6 3.47297 7.07451 2.40002 8.4 2.40002C9.72548 2.40002 10.8 3.47454 10.8 4.80002V13.9528C11.6592 14.7219 12.6 16.1561 12.6 17.4Z" stroke="white" stroke-width="2" stroke-linecap="round" stroke-linejoin="round"/>
</svg>
